# xmcd CD database file
#
# Track frame offsets:
#	150
#	17820
#	32792
#	48307
#	66302
#	84372
#	99722
#	121482
#	137725
#	168157
#	186732
#	202875
#
# Disc length: 2826 seconds
#
# Revision: 1
# Processed by: cddbd v1.5.2PL0 Copyright (c) Steve Scherf et al.
# Submitted via: CDex 1.70beta2
#
DISCID=a70b080c
DTITLE=古井戸 - ぽえじー
DYEAR=1973
DGENRE=Folk
TTITLE0=落ち葉の上を
TTITLE1=つらい恋です
TTITLE2=あの街は春
TTITLE3=バラード
TTITLE4=らびん・すぷーんふる
TTITLE5=おいてきぼり
TTITLE6=コーヒー・サイフォン
TTITLE7=びしょぬれワルツ
TTITLE8=東京脱出
TTITLE9=あの娘が結婚してしまう
TTITLE10=讃美歌
TTITLE11=おやすみ
EXTD=YEAR: 1973
EXTT0=
EXTT1=
EXTT2=
EXTT3=
EXTT4=
EXTT5=
EXTT6=
EXTT7=
EXTT8=
EXTT9=
EXTT10=
EXTT11=
PLAYORDER=
